<svg xmlns="http://www.w3.org/2000/svg" viewBox="0 0 100 100">
  <!-- Blue gradient circular background -->
  <defs>
    <linearGradient id="grad" x1="0%" y1="0%" x2="100%" y2="100%">
      <stop offset="0%" stop-color="#4da3ff"/>
      <stop offset="100%" stop-color="#0057ff"/>
    </linearGradient>
  </defs>

  <!-- Circle -->
  <circle cx="53" cy="53" r="49" fill="url(#grad)" />

  <!-- White padded icon (scaled from your SVG) -->
  <g transform="translate(10,10) scale(3.5)">
    <path fill="#fff" d="M18 11v2h4v-2zm-2 6.61c.96.71 2.21 1.65 3.2 2.39.4-.53.8-1.07 1.2-1.6-.99-.74-2.24-1.68-3.2-2.4-.4.54-.8 1.08-1.2 1.61M20.4 5.6c-.4-.53-.8-1.07-1.2-1.6-.99.74-2.24 1.68-3.2 2.4.4.53.8 1.07 1.2 1.6.96-.72 2.21-1.65 3.2-2.4M4 9c-1.1 0-2 .9-2 2v2c0 1.1.9 2 2 2h1v4h2v-4h1l5 3V6L8 9zm11.5 3c0-1.33-.58-2.53-1.5-3.35v6.69c.92-.81 1.5-2.01 1.5-3.34"/>
  </g>
</svg>
